<?xml version="1.0" encoding="utf-8"?>
<!-- Generator: Adobe Illustrator 16.0.0, SVG Export Plug-In . SVG Version: 6.00 Build 0)  -->
<!DOCTYPE svg PUBLIC "-//W3C//DTD SVG 1.1//EN" "http://www.w3.org/Graphics/SVG/1.1/DTD/svg11.dtd">
<svg version="1.1" id="Layer_1" xmlns="http://www.w3.org/2000/svg" xmlns:xlink="http://www.w3.org/1999/xlink" x="0px" y="0px"
	 width="64px" height="64px" viewBox="0 0 64 64" enable-background="new 0 0 64 64" xml:space="preserve">
<g>
	<path fill="#1d1d1d" d="M31.993,2.013c16.568,0.044,30.023,13.485,29.994,29.966C61.959,48.525,48.5,61.987,31.964,61.987
		c-7.982-0.006-15.5-3.133-21.17-8.805C5.119,47.505,2,39.978,2.013,31.987c0.012-8.016,3.128-15.536,8.773-21.174
		C16.426,5.179,23.958,2.054,31.993,2.013 M31.992,0C14.277,0.085,0.027,14.291,0,31.984C-0.027,49.632,14.36,63.988,31.963,64
		c0.007,0,0.014,0,0.021,0C49.611,64,63.97,49.644,64,31.982C64.031,14.42,49.642,0.043,31.992,0L31.992,0z"/>
</g>
<g>
	<g>
		<path fill="#1d1d1d" d="M20.055,13.507c-0.983,0.691-1.956,1.28-2.806,2.013c-0.59,0.511-1.098,1.169-1.479,1.854
			c-0.803,1.434-0.794,3.027-0.663,4.613c0.293,3.526,1.289,6.88,2.639,10.13c2.428,5.858,5.683,11.21,9.933,15.94
			c1.819,2.023,3.82,3.845,6.155,5.271c1.16,0.705,2.404,1.194,3.773,1.172c1.861-0.034,3.463-0.86,5.061-1.821
			c-2.092-3.624-4.174-7.229-6.195-10.729c-0.754,0.155-1.396,0.388-2.045,0.403c-1.877,0.056-3.348-0.914-4.62-2.147
			c-2.851-2.77-4.674-6.127-5.322-10.057c-0.354-2.157-0.204-4.256,1.867-5.727C24.277,20.824,22.201,17.228,20.055,13.507z"/>
	</g>
	<g>
		<path fill="#1d1d1d" d="M29.263,23.36c0.257-0.086,0.539-0.135,0.771-0.266c1.005-0.56,2.005-1.13,2.993-1.722
			c0.745-0.446,0.956-1.254,0.515-2.021c-1.924-3.346-3.852-6.688-5.792-10.027c-0.494-0.853-1.262-1.049-2.13-0.564
			c-0.956,0.533-1.905,1.079-2.847,1.637c-0.827,0.489-1.047,1.252-0.569,2.087c1.932,3.366,3.87,6.723,5.814,10.08
			C28.287,23.025,28.687,23.3,29.263,23.36z"/>
	</g>
	<g>
		<path fill="#1d1d1d" d="M45.412,51.374c0.264-0.079,0.551-0.115,0.785-0.246c1.004-0.557,2.002-1.129,2.99-1.724
			c0.775-0.466,0.988-1.217,0.537-2.003c-1.936-3.381-3.881-6.759-5.842-10.122c-0.439-0.756-1.258-0.965-2.02-0.543
			c-0.984,0.555-1.967,1.121-2.936,1.707c-0.822,0.496-1.002,1.244-0.525,2.096c0.365,0.646,0.738,1.288,1.111,1.93
			c1.543,2.663,3.084,5.33,4.621,7.998C44.422,50.97,44.797,51.31,45.412,51.374z"/>
	</g>
</g>
</svg>
