<?xml version="1.0" encoding="utf-8"?>
<!-- Generator: Adobe Illustrator 16.0.0, SVG Export Plug-In . SVG Version: 6.00 Build 0)  -->
<!DOCTYPE svg PUBLIC "-//W3C//DTD SVG 1.1//EN" "http://www.w3.org/Graphics/SVG/1.1/DTD/svg11.dtd">
<svg version="1.1" id="Layer_1" xmlns="http://www.w3.org/2000/svg" xmlns:xlink="http://www.w3.org/1999/xlink" x="0px" y="0px"
	 width="64px" height="64px" viewBox="0 0 64 64" enable-background="new 0 0 64 64" xml:space="preserve">
<path fill-rule="evenodd" clip-rule="evenodd" fill="none" stroke="#F1F3F5" stroke-width="2" stroke-linejoin="round" stroke-miterlimit="10" d="
	M14.967,50.588c-2.537,1.29-4.037,2.878-4.037,4.598C10.93,59.501,20.363,63,32,63c11.637,0,21.071-3.499,21.071-7.814
	c0-1.72-1.501-3.308-4.038-4.599"/>
<g>
	<g>
		<path fill="#F1F3F5" d="M0,23.975C0,7.762,14.327,0,32,0s32,7.762,32,23.975S32,53.334,32,53.334S0,40.188,0,23.975z M32,32.59
			c6.903,0,12.5-5.597,12.5-12.5S38.903,7.59,32,7.59s-12.5,5.597-12.5,12.5S25.097,32.59,32,32.59z"/>
	</g>
</g>
</svg>
