<?xml version="1.0" encoding="utf-8"?>
<!-- Generator: Adobe Illustrator 16.0.0, SVG Export Plug-In . SVG Version: 6.00 Build 0)  -->
<!DOCTYPE svg PUBLIC "-//W3C//DTD SVG 1.1//EN" "http://www.w3.org/Graphics/SVG/1.1/DTD/svg11.dtd">
<svg version="1.1" id="Layer_1" xmlns="http://www.w3.org/2000/svg" xmlns:xlink="http://www.w3.org/1999/xlink" x="0px" y="0px"
	 width="135px" height="50px" viewBox="0 0 135 50" enable-background="new 0 0 135 50" xml:space="preserve">
<g>
	<g>
		<path fill="#515961" d="M74.036,50H61.025l4.609-15.354c1.129-3.791-1.101-3.791-1.101-3.791h15.242L74.041,50"/>
		<path fill="#515961" d="M20.04,50l2.868-9.57L29.463,50l10.827-9.57L37.423,50h13.015l5.737-19.145h-13.01h-0.008l-10.828,9.572
			l-6.554-9.572h-8.233c0,0,2.227,0,1.104,3.791L14.047,50H20.04"/>
		<path fill="#515961" d="M98.002,50H84.994L89.6,34.646c1.129-3.774-1.099-3.791-1.099-3.791h25.054c0,0,5.514-0.371,5.514,4.795
			s-5.658,6.567-5.658,6.567L117.374,50h-13.013l-3.484-9.57L98.009,50 M105.549,35.464c0.582-2.108-2.679-1.637-2.679-1.637
			l-1.371,4.612C101.499,38.439,104.968,37.57,105.549,35.464z"/>
		<polygon fill="#515961" points="80.545,27.756 83.197,19.124 70.184,19.124 70.177,19.124 67.53,27.756 		"/>
	</g>
	<g>
		<path fill="#87ABCF" d="M11.615,21.598c-0.073,0.356-0.16,0.854-0.263,1.491c-0.103,0.638-0.172,1.131-0.208,1.482
			c-1.292,0.194-2.446,0.291-3.461,0.291c-0.979,0-1.889-0.123-2.732-0.368c-0.842-0.246-1.616-0.648-2.319-1.209
			c-0.704-0.561-1.207-1.22-1.508-1.978c-0.302-0.758-0.453-1.606-0.453-2.546c0-1.097,0.204-2.083,0.612-2.959
			c0.408-0.876,0.993-1.606,1.757-2.191s1.602-1.003,2.514-1.255c0.912-0.252,1.854-0.377,2.827-0.377
			c0.894,0,1.999,0.115,3.316,0.346l0.018,0.764c0.012,0.333,0.03,0.7,0.054,1.1l0.063,1.037c-0.707-0.169-1.279-0.285-1.717-0.346
			c-0.438-0.061-0.844-0.091-1.219-0.091c-0.815,0-1.549,0.164-2.202,0.491c-0.652,0.327-1.166,0.803-1.54,1.427
			c-0.375,0.625-0.562,1.315-0.562,2.073c0,0.691,0.157,1.284,0.471,1.778c0.314,0.494,0.739,0.876,1.273,1.146
			c0.535,0.27,1.195,0.405,1.98,0.405c0.429,0,0.896-0.035,1.4-0.104C10.221,21.933,10.854,21.798,11.615,21.598z"/>
		<path fill="#87ABCF" d="M13.183,24.626c0.097-0.903,0.167-1.646,0.209-2.228c0.084-1.219,0.172-2.634,0.264-4.247
			c0.055-1.067,0.095-2.091,0.123-3.073c0.028-0.982,0.041-1.937,0.041-2.864c0.767,0.012,1.391,0.018,1.875,0.018
			c0.652,0,1.268-0.006,1.847-0.018l-0.188,2.201c-0.03,0.364-0.078,1.1-0.143,2.209c0.199-0.255,0.362-0.444,0.489-0.568
			s0.267-0.239,0.421-0.346c0.154-0.106,0.311-0.195,0.471-0.268c0.16-0.073,0.344-0.136,0.552-0.191s0.438-0.097,0.688-0.127
			c0.251-0.03,0.509-0.045,0.774-0.045c0.513,0,1.01,0.058,1.49,0.173c0.48,0.115,0.889,0.317,1.227,0.604
			c0.338,0.288,0.567,0.609,0.688,0.964c0.121,0.355,0.181,0.744,0.181,1.168c0,0.164-0.004,0.38-0.014,0.65
			c-0.009,0.27-0.028,0.61-0.058,1.022l-0.199,3.064c-0.024,0.382-0.037,0.699-0.04,0.95s-0.005,0.568-0.005,0.95
			c-0.628-0.012-1.229-0.018-1.804-0.018c-0.646,0-1.302,0.006-1.967,0.018c0.102-0.806,0.192-1.735,0.27-2.787
			c0.078-1.051,0.117-1.835,0.117-2.35c0-0.57-0.12-0.97-0.358-1.2c-0.238-0.23-0.555-0.346-0.948-0.346
			c-0.351,0-0.662,0.073-0.934,0.218c-0.242,0.127-0.454,0.324-0.635,0.591c-0.157,0.225-0.287,0.549-0.39,0.973
			c-0.121,0.515-0.215,1.276-0.281,2.282c-0.036,0.558-0.071,1.431-0.107,2.619c-0.609-0.012-1.179-0.018-1.71-0.018
			C14.591,24.608,13.942,24.614,13.183,24.626z"/>
		<path fill="#87ABCF" d="M26.718,17.988c0.115-0.6,0.187-1.014,0.217-1.241c0.03-0.227,0.079-0.583,0.145-1.068
			c1.74-0.382,3.235-0.573,4.485-0.573c0.713,0,1.365,0.081,1.958,0.241c0.592,0.161,1.054,0.42,1.386,0.778
			c0.333,0.357,0.499,0.87,0.499,1.537c0,0.339-0.045,1.103-0.136,2.291c-0.09,1.188-0.16,2.746-0.208,4.674
			c-0.593-0.012-1.182-0.018-1.768-0.018c-0.568,0-1.172,0.006-1.813,0.018c0.083-0.667,0.174-2.043,0.274-4.128
			c-0.229,0.109-0.408,0.188-0.538,0.236c-0.13,0.048-0.357,0.121-0.683,0.218c-0.325,0.097-0.58,0.179-0.764,0.246
			c-0.184,0.066-0.343,0.151-0.479,0.254c-0.136,0.103-0.232,0.209-0.289,0.318s-0.086,0.23-0.086,0.364
			c0,0.206,0.082,0.382,0.245,0.527s0.423,0.218,0.779,0.218c0.127,0,0.263-0.011,0.408-0.032s0.344-0.074,0.598-0.159
			c-0.175,0.467-0.383,1.148-0.625,2.045c-0.52,0.085-1.012,0.127-1.477,0.127c-0.749,0-1.373-0.104-1.871-0.313
			c-0.499-0.209-0.882-0.547-1.151-1.014c-0.269-0.466-0.403-0.933-0.403-1.4c0-0.285,0.049-0.564,0.149-0.837
			c0.1-0.272,0.255-0.539,0.466-0.8c0.211-0.261,0.458-0.483,0.743-0.668c0.284-0.185,0.671-0.359,1.164-0.523
			c0.493-0.164,1.116-0.318,1.87-0.463c0.314-0.061,0.603-0.126,0.865-0.196c0.263-0.069,0.45-0.13,0.562-0.182
			c0.112-0.052,0.202-0.112,0.271-0.182c0.069-0.069,0.119-0.142,0.149-0.218c0.03-0.076,0.045-0.156,0.045-0.241
			c0-0.23-0.097-0.408-0.29-0.532s-0.477-0.186-0.852-0.186C29.528,17.106,28.246,17.4,26.718,17.988z"/>
		<path fill="#87ABCF" d="M43.842,21.953c-0.109,0.509-0.203,1.006-0.281,1.491l-0.199,1.109c-0.598,0.133-1.065,0.218-1.4,0.254
			c-0.335,0.037-0.66,0.055-0.974,0.055c-0.513,0-0.969-0.044-1.368-0.132c-0.398-0.088-0.731-0.249-0.997-0.482
			s-0.447-0.501-0.543-0.805c-0.097-0.303-0.145-0.624-0.145-0.964c0-0.061,0.003-0.168,0.009-0.323
			c0.006-0.154,0.027-0.499,0.063-1.032l0.198-3.146h-1.412c0.03-0.418,0.057-0.97,0.082-1.655l0.027-0.846h1.501
			c0.036-0.278,0.081-0.888,0.135-1.828l1.551-0.318c0.284-0.055,0.889-0.194,1.814-0.418c-0.042,0.794-0.073,1.649-0.091,2.564
			h2.066c-0.048,1.261-0.072,2.095-0.072,2.5h-2.084l-0.109,2.273c-0.012,0.339-0.018,0.558-0.018,0.655
			c0,0.291,0.032,0.533,0.095,0.727c0.063,0.194,0.175,0.333,0.335,0.418c0.16,0.085,0.337,0.127,0.53,0.127
			c0.145,0,0.296-0.011,0.453-0.032C43.166,22.127,43.443,22.062,43.842,21.953z"/>
		<path fill="#87ABCF" d="M45.854,17.988c0.115-0.6,0.187-1.014,0.217-1.241c0.03-0.227,0.079-0.583,0.145-1.068
			c1.74-0.382,3.235-0.573,4.485-0.573c0.713,0,1.365,0.081,1.958,0.241c0.592,0.161,1.054,0.42,1.386,0.778
			c0.333,0.357,0.499,0.87,0.499,1.537c0,0.339-0.045,1.103-0.136,2.291c-0.09,1.188-0.16,2.746-0.208,4.674
			c-0.593-0.012-1.182-0.018-1.768-0.018c-0.568,0-1.172,0.006-1.813,0.018c0.083-0.667,0.174-2.043,0.274-4.128
			c-0.229,0.109-0.408,0.188-0.538,0.236c-0.13,0.048-0.357,0.121-0.683,0.218c-0.325,0.097-0.58,0.179-0.764,0.246
			c-0.184,0.066-0.343,0.151-0.479,0.254c-0.136,0.103-0.232,0.209-0.289,0.318c-0.057,0.109-0.086,0.23-0.086,0.364
			c0,0.206,0.082,0.382,0.245,0.527s0.423,0.218,0.779,0.218c0.127,0,0.263-0.011,0.408-0.032s0.344-0.074,0.598-0.159
			c-0.175,0.467-0.383,1.148-0.625,2.045c-0.52,0.085-1.012,0.127-1.477,0.127c-0.749,0-1.373-0.104-1.871-0.313
			c-0.499-0.209-0.882-0.547-1.151-1.014c-0.269-0.466-0.403-0.933-0.403-1.4c0-0.285,0.049-0.564,0.149-0.837
			c0.1-0.272,0.255-0.539,0.466-0.8c0.211-0.261,0.458-0.483,0.743-0.668c0.284-0.185,0.671-0.359,1.164-0.523
			c0.493-0.164,1.116-0.318,1.87-0.463c0.314-0.061,0.603-0.126,0.865-0.196c0.263-0.069,0.45-0.13,0.562-0.182
			c0.112-0.052,0.202-0.112,0.271-0.182c0.069-0.069,0.119-0.142,0.149-0.218c0.03-0.076,0.045-0.156,0.045-0.241
			c0-0.23-0.097-0.408-0.29-0.532c-0.193-0.124-0.477-0.186-0.852-0.186C48.664,17.106,47.381,17.4,45.854,17.988z"/>
	</g>
	<g>
		<g>
			<path fill="#5F5A5E" d="M104.361,2.893c0.16,0.183,0.32,0.401,0.482,0.555c0.182,0.148,0.401,0.202,0.641,0.245
				c0.244,0.037,0.494,0.063,0.752,0.133c0.129,0.031,0.266,0.083,0.396,0.173c0.102,0.072,0.201,0.145,0.305,0.242
				c0.207,0.179,0.367,0.393,0.514,0.623c0.125,0.203,0.264,0.33,0.453,0.477c0.178,0.132,0.385,0.239,0.564,0.27
				c0.268,0.057,0.492,0.118,0.766,0.23c0.252,0.102,0.478,0.208,0.717,0.335c0.238,0.143,0.328,0.161,0.593,0.189
				c0.11,0.018,0.206,0.018,0.347,0.025h0.101c0.063,0.011,0.13,0.028,0.19,0.051l0.185,0.086c0.186,0.069,0.462,0.215,0.659,0.25
				c0.18,0.04,0.516,0.144,0.713,0.219l0.162,0.041c0.053,0.011,0.129,0.04,0.213,0.075c0.152,0.064,0.227,0.103,0.339,0.138
				l0.356,0.127l0.363,0.176c0.092,0.038,0.227,0.093,0.251,0.094c0.022-0.01-0.138,0.015-0.104,0.013
				c0.148-0.06,0.258-0.03,0.316-0.019c0.105,0.028,0.172,0.057,0.236,0.084c0.17,0.075,0.411,0.117,0.656,0.171
				c0.129,0.03,0.244,0.048,0.418,0.11c0.051,0.03,0.088,0.009,0.238,0.161c0.025,0.024,0.094,0.142,0.092,0.263
				c0.009,0.099-0.074,0.247-0.098,0.259c-0.089,0.096-0.113,0.094-0.16,0.124c-0.123,0.056-0.187,0.066-0.261,0.084
				c-0.526,0.112-1.073,0.148-1.601,0.103l-0.186-0.016c-0.046-0.01-0.148,0.005-0.052-0.016c-0.01,0.015,0.169-0.079,0.192-0.195
				c0.022-0.05,0.022-0.125,0.015-0.162c-0.001-0.013-0.004-0.025-0.009-0.037l-0.008-0.017c0.002,0.002-0.055-0.091-0.026-0.047
				l0.013,0.02l0.026,0.039c0.015,0.013-0.024-0.047-0.046-0.046c0.009,0.001,0.005,0.002,0.021,0.009
				c0.174,0.029,0.588,0.199,0.766,0.353l0.311,0.225c0.104,0.078,0.126,0.09,0.271,0.174l0.643,0.384
				c0.418,0.278,0.852,0.452,1.314,0.674c0.055,0.027,0.111,0.047,0.193,0.098c0.125,0.083,0.159,0.146,0.209,0.21
				c0.082,0.125,0.133,0.214,0.18,0.256c0.05,0.039,0.063,0.052,0.184,0.051c0.125,0,0.245-0.005,0.389,0.004
				c0.271,0.003,0.58,0.107,0.789,0.203l0.688,0.287c0.47,0.202,0.938,0.322,1.399,0.69c0.029,0.03,0.062,0.067,0.088,0.122
				c0.028,0.06,0.033,0.168-0.02,0.238c-0.098,0.121-0.175,0.124-0.245,0.15l-0.378,0.079c-0.246,0.047-0.488,0.098-0.727,0.162
				c-0.485,0.126-1.008,0.188-1.521,0.174c-0.512-0.014-1.021-0.165-1.463-0.116c-0.376,0.037-0.787,0.584-1.388,0.567
				c-0.146-0.01-0.271,0.016-0.463-0.112c-0.073-0.053-0.147-0.184-0.12-0.144c0.128,0.048,0.061,0.012,0.022,0.055
				c-0.19,0.113-0.369,0.31-0.664,0.417c-0.557,0.16-1.049,0.117-1.535,0.169c-0.119,0.011-0.235,0.026-0.34,0.05
				c-0.102,0.012-0.193,0.089-0.15,0.051c0.017-0.06,0.014,0.021-0.029,0.159c-0.011,0.028-0.023,0.055-0.04,0.082l-0.021,0.03
				c-0.002-0.032,0.021,0.058,0.033-0.167c-0.012-0.069-0.051-0.128-0.104-0.163l-0.022-0.014c-0.02-0.007-0.008-0.003-0.004-0.002
				l0.039,0.011c0.125,0.034,0.254,0.074,0.374,0.116l1.413,0.499c0.461,0.162,0.961,0.329,1.428,0.563
				c0.441,0.224,0.898,0.454,1.309,0.61l0.718,0.21c0.138,0.053,0.243,0.064,0.46,0.216c0.043,0.05,0.189,0.117,0.186,0.416
				c-0.061,0.281-0.187,0.307-0.234,0.354c-0.12,0.072-0.192,0.09-0.268,0.115c-0.552,0.154-1.063,0.189-1.563,0.23
				c-0.099,0.004-0.302,0.033-0.257,0.023c-0.004,0.001,0.061-0.024,0.08-0.045c0.049-0.034,0.099-0.094,0.121-0.154
				c0.035-0.065,0.05-0.209,0.009-0.295c-0.099-0.194-0.134-0.156-0.138-0.175c-0.018-0.01,0.011,0.004,0.026,0.009l0.169,0.062
				c0.268,0.103,0.495,0.215,0.729,0.337c0.465,0.253,0.896,0.493,1.344,0.884c0.109,0.09,0.275,0.31,0.318,0.486
				c0.053,0.157,0.084,0.305,0.098,0.481c0.003,0.092,0.007,0.183-0.021,0.308c-0.026,0.116-0.09,0.307-0.302,0.438
				c-0.108,0.064-0.209,0.083-0.307,0.087c-0.103-0.002-0.064,0-0.142-0.007c-0.117-0.013-0.173-0.026-0.244-0.042l-0.352-0.083
				c-0.081-0.036-0.213,0.017-0.039-0.051c0.243-0.35-0.039,0.388-0.27,0.59l-0.069,0.062l-0.043,0.021
				c-0.385,0.187-0.776,0.318-1.202,0.399c-0.33,0.085-0.895,0.1-1.21,0.085c-0.657-0.005-1.377,0.245-2.116,0.436
				c-0.746,0.203-1.505,0.339-2.195,0.549c-0.342,0.107-0.658,0.241-0.934,0.419c-0.363,0.265-0.892,0.377-1.283,0.363
				c-0.408-0.001-0.768-0.031-1.121-0.006c-0.363,0.025-0.668,0.095-1.047,0.212c-0.729,0.209-1.459,0.433-2.215,0.608
				c-0.365,0.1-0.809,0.134-1.174,0.137c-0.382,0.005-0.756,0.03-1.133,0.051c-0.75,0.045-1.521,0.089-2.264,0.176l-0.025-0.08
				c0.761-0.16,1.503-0.265,2.266-0.38c0.381-0.055,0.762-0.114,1.141-0.151c0.396-0.03,0.713-0.074,1.078-0.192
				c0.715-0.212,1.428-0.478,2.146-0.732c0.34-0.131,0.773-0.265,1.17-0.296c0.405-0.043,0.809-0.026,1.16-0.039
				c0.367-0.016,0.615-0.081,0.871-0.267c0.354-0.253,0.74-0.427,1.119-0.561c0.759-0.254,1.49-0.429,2.213-0.629
				c0.727-0.187,1.464-0.473,2.339-0.485c0.442,0.001,0.646,0.012,1.062-0.081c0.319-0.063,0.654-0.178,0.953-0.326l-0.113,0.083
				c0.024-0.03,0.063-0.104,0.088-0.134l0.054-0.179l0.049-0.143c0.04-0.094,0.132-0.208,0.226-0.26
				c0.396-0.192,0.533-0.081,0.691-0.078l0.379,0.086l0.122,0.026c-0.015,0.003,0.087,0.006,0.046,0.006
				c-0.035-0.001-0.074,0.008-0.129,0.039c-0.186,0.174-0.078,0.144-0.105,0.066c-0.002-0.073-0.021-0.171-0.045-0.252
				c-0.022-0.068-0.012-0.054-0.086-0.131c-0.299-0.275-0.733-0.548-1.143-0.777c-0.206-0.114-0.425-0.226-0.622-0.305l-0.182-0.071
				c-0.041-0.018-0.072-0.028-0.144-0.069c-0.029-0.035-0.092-0.014-0.205-0.236c-0.041-0.093-0.029-0.245,0.008-0.317
				c0.027-0.066,0.082-0.133,0.137-0.172c0.034-0.027,0.109-0.063,0.122-0.065c0.286-0.075,0.336-0.048,0.485-0.066
				c0.492-0.027,0.984-0.062,1.399-0.169c0.043-0.01,0.093-0.032,0.078-0.024c0.002,0.014-0.065-0.001-0.119,0.215
				c0.004,0.233,0.099,0.25,0.095,0.262c0.016,0.004-0.121-0.061-0.219-0.092l-0.711-0.237c-0.516-0.216-0.941-0.46-1.383-0.701
				c-0.418-0.231-0.865-0.391-1.336-0.586l-1.383-0.575c-0.111-0.047-0.221-0.087-0.334-0.125l-0.051-0.017l-0.047-0.019
				l-0.045-0.023c-0.06-0.041-0.107-0.104-0.119-0.181c0.012-0.242,0.047-0.163,0.053-0.208l0.007-0.009l0.002-0.001
				c0.007,0.022-0.011-0.03,0.062-0.203c0.182-0.254,0.359-0.244,0.493-0.283c0.142-0.024,0.274-0.032,0.404-0.039
				c0.505-0.023,1.028,0.023,1.442-0.078c0.186-0.049,0.373-0.219,0.612-0.355c0.063-0.008,0.128-0.14,0.367-0.014
				c0.112,0.13,0.082,0.125,0.11,0.147c0.012,0.027,0.156,0.059,0.254,0.055c0.21,0.004,0.422-0.085,0.627-0.204l0.313-0.194
				c0.127-0.083,0.272-0.124,0.411-0.14c0.558-0.044,1.028,0.123,1.515,0.14c0.485,0.03,0.963-0.05,1.44-0.183
				c0.243-0.072,0.487-0.129,0.729-0.181l0.354-0.082c0.046-0.009,0.098-0.046,0.075-0.029c-0.027,0.064,0.011,0.074-0.032,0.033
				c-0.329-0.25-0.844-0.421-1.301-0.568c-0.479-0.141-0.955-0.398-1.369-0.38c-0.107-0.001-0.236,0.01-0.359,0.018
				c-0.129,0.02-0.377-0.015-0.52-0.145c-0.146-0.121-0.219-0.254-0.281-0.331c-0.023-0.037-0.07-0.071-0.052-0.057
				c-0.022-0.015-0.086-0.037-0.146-0.061c-0.447-0.183-0.953-0.36-1.386-0.613l-0.665-0.346c-0.072-0.038-0.273-0.137-0.369-0.21
				l-0.302-0.208c-0.223-0.149-0.276-0.171-0.592-0.252c-0.042-0.013-0.103-0.04-0.149-0.063c-0.068-0.038-0.166-0.129-0.189-0.165
				l-0.026-0.039l-0.014-0.019c0.022,0.039-0.037-0.06-0.038-0.066l-0.016-0.039l-0.024-0.081c-0.011-0.052-0.007-0.143,0.019-0.208
				c0.033-0.144,0.241-0.26,0.262-0.249c0.22-0.047,0.242-0.018,0.322-0.021l0.188,0.012c0.47,0.032,0.929-0.01,1.376-0.111
				c0.047-0.01,0.104-0.031,0.096-0.028c-0.02,0.013-0.016-0.002-0.085,0.069c-0.008,0.003-0.09,0.133-0.076,0.218
				c-0.008,0.106,0.06,0.208,0.073,0.222c0.106,0.107,0.084,0.061,0.077,0.068c-0.061-0.024-0.191-0.057-0.305-0.084
				c-0.238-0.061-0.495-0.103-0.783-0.23l-0.114-0.047c-0.001,0,0.043,0.016,0.134-0.021c-0.022,0.027-0.25,0.058-0.287,0.034
				c-0.22-0.047-0.31-0.107-0.449-0.165l-0.305-0.16l-0.347-0.132c-0.125-0.042-0.274-0.117-0.351-0.151
				c-0.031-0.018-0.068-0.039-0.139-0.056l-0.199-0.056c-0.27-0.104-0.408-0.152-0.713-0.237c-0.291-0.077-0.455-0.182-0.731-0.297
				l-0.152-0.078c0.001,0.005,0.007,0.004,0.013-0.002h-0.086c-0.109-0.008-0.265-0.013-0.4-0.041
				c-0.235-0.013-0.627-0.168-0.803-0.308c-0.195-0.119-0.416-0.238-0.623-0.334c-0.183-0.096-0.435-0.18-0.652-0.24
				c-0.311-0.075-0.544-0.229-0.757-0.402c-0.201-0.162-0.414-0.404-0.535-0.636c-0.113-0.197-0.239-0.396-0.396-0.56
				c-0.07-0.083-0.166-0.166-0.262-0.248c-0.07-0.056-0.165-0.109-0.277-0.146c-0.219-0.081-0.463-0.129-0.707-0.188
				c-0.244-0.064-0.522-0.159-0.711-0.354c-0.177-0.21-0.287-0.418-0.434-0.627L104.361,2.893z"/>
		</g>
		<g>
			<path fill="#5F5A5E" d="M72.723,12.174c0.37,0.047,0.77,0.164,1.117,0.252l1.092,0.276c0.36,0.092,0.723,0.184,1.073,0.248
				l0.234,0.024l0.296,0.012l0.563,0.02c0.379,0.026,0.771,0.117,1.156,0.188l1.1,0.197c0.377,0.077,0.737,0.125,1.08,0.145
				l0.26,0.025l0.131,0.013l0.064,0.006l0.032,0.003c0.058-0.005-0.073,0.007-0.06,0.005h0.006l0.009-0.001l0.017-0.003l0.139-0.024
				c0.044-0.016,0.004-0.026,0.115-0.042c0.088-0.013,0.213-0.022,0.272-0.009l0.171,0.039c0.451,0.132,0.727,0.272,1.104,0.426
				c0.346,0.147,0.688,0.275,0.959,0.338c0.371,0.037,0.73,0.061,1.1,0.074c0.184,0.006,0.363,0.005,0.527,0
				c0.068,0.008,0.188-0.046,0.076,0.035c0.03-0.012,0.062-0.054,0.106-0.088c0.086-0.061,0.218-0.128,0.279-0.124
				c0.329-0.036,0.452,0.023,0.655,0.03l0.553,0.046c0.382,0.036,0.746,0.054,1.167,0.154c0.065,0.022,0.143,0.057,0.207,0.091
				c-0.033-0.022,0.063,0.027,0.091,0.037c0.093,0.051,0.152,0.046,0.223,0.062c0.143,0.038,0.344,0.034,0.609,0.148
				c0.302,0.224,0.602,0.455,0.896,0.689l0.543,0.431l-0.641-0.2h-0.002l-0.029-0.01c-0.015-0.008,0.008,0.008-0.035-0.02
				c-0.045-0.027-0.063-0.118-0.047-0.144c0.012-0.04,0.068-0.088,0.111-0.092l0.02-0.003l0.067-0.004l0.111-0.001l0.215,0.004
				c0.157,0.004,0.285,0.027,0.429,0.039l0.834,0.091c0.527,0.069,1.113,0.121,1.663,0.175l0.839,0.082l0.209,0.021l0.131,0.013
				l0.104,0.015l0.417,0.061l1.645,0.248l3.367,0.472c0.273,0.035,0.608,0.109,0.909,0.168l0.463,0.099
				c0.046-0.007,0.245,0.066,0.36,0.096l1.58,0.463c0.594,0.183,1.084,0.38,1.574,0.473c0.101,0.011,0.231,0.023,0.235,0.015
				l0.015,0.005l0.082-0.021l0.103-0.027c0.067-0.017,0.117-0.04,0.269-0.048c0.137-0.013,0.254-0.003,0.334,0.019l0.221,0.047
				l0.094,0.022c0.115,0.028,0.09,0.026,0.143,0.041l0.2,0.063c0.322,0.128,0.573,0.261,0.767,0.301l0.809,0.194
				c0.552,0.153,1.061,0.186,1.744,0.565c0.089,0.06,0.216,0.184,0.264,0.373c-0.008-0.037,0.02,0.053,0.024,0.061
				c0.015,0.026,0.001-0.009,0.034,0.071c0.022,0.056,0.058,0.118,0.053,0.264c0.002,0.128-0.064,0.213-0.133,0.303
				c-0.11,0.106-0.223,0.161-0.301,0.188c-0.324,0.12-0.619,0.156-0.896,0.196c-0.546,0.083-1.148,0.102-1.668,0.191
				c-0.293,0.033-0.456,0.116-0.76,0.224c-0.277,0.123-0.615,0.145-0.854,0.188c-0.065,0.008-0.112,0.032-0.126,0.036
				c-0.001-0.009-0.009-0.026,0.012,0.068c0.047,0.117,0.021,0.347-0.004,0.461c-0.025,0.135-0.019,0.24,0.062,0.318
				c0.091,0.075,0.229,0.103,0.36,0.138l-0.011,0.084c-0.144-0.021-0.291-0.024-0.437-0.112c-0.149-0.101-0.182-0.306-0.168-0.447
				c-0.002-0.163,0.023-0.223-0.043-0.371c-0.004-0.04-0.096-0.205,0.023-0.324c0.083-0.089,0.18-0.12,0.247-0.143
				c0.304-0.092,0.533-0.14,0.765-0.26c0.217-0.098,0.563-0.286,0.83-0.327c0.582-0.151,1.104-0.207,1.662-0.343
				c0.275-0.055,0.54-0.111,0.74-0.199c0.055-0.017,0.063-0.045,0.057-0.026c-0.037,0.029-0.033,0.065-0.051,0.118
				c0.004,0.073,0.012,0.07,0.004,0.062l-0.062-0.117c-0.022-0.056-0.019-0.034-0.052-0.136c0.004,0.055,0.039,0.064,0.009,0.05
				c-0.313-0.156-0.948-0.258-1.487-0.355c-0.281-0.054-0.542-0.095-0.84-0.163c-0.357-0.081-0.611-0.213-0.811-0.291l-0.203-0.059
				c-0.016-0.005-0.107-0.03-0.061-0.019l-0.113-0.023c-0.16-0.031-0.271-0.058-0.276-0.043c0.01-0.015-0.076,0.009-0.144,0.03
				l-0.102,0.03c-0.003,0-0.063,0.02-0.021,0.004l-0.09,0.019c-0.273,0.056-0.423,0.011-0.603-0.004
				c-0.616-0.12-1.173-0.35-1.653-0.497l-1.643-0.537l-0.446-0.149l-0.364-0.069c-0.251-0.045-0.464-0.106-0.746-0.152
				c-0.541-0.095-1.14-0.184-1.633-0.289l-1.66-0.32L95,16.487l-0.414-0.082l-0.182-0.033l-0.209-0.031l-0.838-0.123
				c-0.564-0.083-1.099-0.153-1.68-0.277l-0.835-0.157c-0.135-0.023-0.284-0.059-0.407-0.071l-0.205-0.02l-0.101-0.006l-0.038-0.001
				c-0.002,0-0.006,0-0.006,0c0.034,0,0.084-0.046,0.087-0.083c0.017-0.023,0.005-0.11-0.039-0.134l-0.022-0.014
				c-0.004-0.001-0.006-0.001-0.006-0.001l0,0l-0.097,0.231c-0.327-0.183-0.651-0.371-0.973-0.564l-0.497-0.04
				c-0.116-0.014-0.245-0.029-0.323-0.062c-0.062-0.023-0.051-0.008-0.172-0.064c-0.022,0.001-0.033-0.001-0.058-0.008
				c-0.315-0.05-0.703-0.058-1.069-0.066c-0.334,0.002-0.856-0.032-1.038-0.02c-0.036-0.001,0.021,0.005,0.023-0.019
				c-0.027,0.022-0.055,0.063-0.104,0.096c-0.281,0.168-0.354,0.115-0.472,0.147c-0.209,0.017-0.403,0.015-0.597,0.013
				c-0.383-0.008-0.772-0.029-1.147-0.061c-0.467-0.086-0.823-0.236-1.172-0.373c-0.317-0.128-0.728-0.304-0.998-0.375l-0.103-0.031
				c-0.031-0.008-0.002,0.007-0.006-0.006c0.016-0.02-0.104,0.033-0.15,0.043l-0.141,0.02l-0.098,0.009l-0.037-0.004l-0.074-0.009
				l-0.15-0.018l-0.297-0.037c-0.408-0.041-0.787-0.108-1.146-0.193l-1.107-0.237c-0.353-0.068-0.687-0.181-1.053-0.24l-0.56-0.066
				l-0.265-0.034l-0.324-0.056c-0.381-0.103-0.737-0.223-1.094-0.351l-1.053-0.415c-0.365-0.135-0.672-0.289-1.031-0.407
				L72.723,12.174z"/>
		</g>
		<g>
			<path fill="#515961" d="M62.1,16.777c0.369-0.158,0.757-0.3,1.111-0.47c0.166-0.094,0.403-0.156,0.579-0.21l0.578-0.176
				l1.19-0.282c0.17-0.034,0.377-0.12,0.565-0.172c0.201-0.054,0.372-0.132,0.54-0.209c0.17-0.075,0.341-0.146,0.504-0.251
				c0.163-0.101,0.336-0.181,0.49-0.297l0.462-0.338l0.535-0.344l1.021-0.649c0.357-0.209,0.748-0.396,1.124-0.592l-0.057,0.03
				c1.125-0.719,2.261-1.394,3.458-1.991c0.576-0.327,1.203-0.59,1.84-0.837l0.95-0.372C77.34,9.5,77.632,9.43,77.955,9.333
				c2.525-0.71,5.104-1.297,7.646-1.925c0.627-0.164,1.295-0.29,1.892-0.486c0.585-0.21,1.215-0.459,1.825-0.697
				c0.615-0.24,1.242-0.461,1.927-0.58c0.67-0.093,1.312-0.139,1.969-0.21l0.979-0.098l0.244-0.024l0.099-0.011l0.121-0.024
				l0.481-0.099c0.656-0.131,1.199-0.371,1.811-0.625c0.341-0.142,0.637-0.243,0.9-0.375c0.295-0.139,0.6-0.281,0.914-0.414
				c0.166-0.061,0.316-0.131,0.508-0.177c0.104-0.02,0.166-0.057,0.305-0.061l0.191-0.004h0.049l0.022,0.001
				c-0.11-0.013-0.022-0.004-0.043-0.007l0.062-0.004c0.371-0.015,0.521-0.097,0.873-0.169c0.623-0.153,1.254-0.341,1.885-0.51
				c0.638-0.162,1.244-0.382,1.972-0.486c1.294-0.128,2.454-0.592,4.101-0.453c0.293,0.047,0.402,0.148,0.606,0.226l0.438,0.217
				l0.107,0.054l0.15,0.083l0.215,0.12c0.082,0.052,0.121,0.054,0.238,0.146l0.156,0.128l0.076,0.067l0.001-0.008
				c0.013,0.009,0.403,0.138,0.712,0.223c0.123,0.048,0.199,0.062,0.357,0.146c0.09,0.054,0.223,0.164,0.253,0.203l0.094,0.112
				c0.026,0.027-0.192-0.185-0.094-0.091l0.013,0.008l0.026,0.018l0.051,0.034c0.029,0.017,0.078,0.059,0.093,0.056
				c0.014-0.025,0.01-0.039,0.008-0.035c0.098,0.014,0.232,0.036,0.347,0.035l0.021,0.001h0.012
				c-0.033-0.005,0.332,0.044,0.185,0.025l0.06,0.017l0.119,0.033c0.144,0.063,0.305,0.158,0.44,0.26
				c0.126,0.09,0.231,0.181,0.338,0.23l0.399,0.228c0.563,0.305,1.162,0.695,1.731,1.06l0.837,0.57
				c0.139,0.096,0.325,0.266,0.479,0.402l0.235,0.22l0.029,0.028c0.088,0.1-0.104-0.12-0.079-0.093l0.011,0.011l0.043,0.044
				l0.086,0.088l0.021,0.022c-0.008-0.013-0.018-0.026-0.029-0.039c-0.021-0.024-0.05-0.045-0.08-0.06
				c-0.029-0.015-0.063-0.022-0.093-0.024c-0.032-0.001,0.033,0.005,0.046,0.007c0.053,0.008,0.09,0.008,0.156,0.022
				c0.088,0.024,0.178,0.056,0.264,0.093l0.127,0.059c-0.002-0.004,0.14,0.096,0.084,0.058l0.013,0.01l0.022,0.02l0.096,0.079
				c0.031,0.025,0.086,0.084,0.127,0.125l0.063,0.066l-0.005-0.009c-0.022-0.004-0.007-0.007,0.003-0.003l0.006,0.007l0.002,0.002
				c-0.121-0.021-0.025-0.005-0.049-0.009l0.031,0.004l0.122,0.015c0.175,0.028,0.282,0.002,0.518,0.062
				c0.83,0.207,1.337,0.489,1.964,0.74c0.314,0.146,0.549,0.189,0.827,0.298c0.312,0.078,0.638,0.165,0.953,0.229l1.904,0.348
				l1.954,0.396c0.337,0.066,0.601,0.148,0.898,0.228c0.418,0.093,0.649,0.163,1.02,0.297c0.695,0.247,1.26,0.48,1.839,0.631
				l0.051,0.01c0.756,0.236,1.517,0.498,2.289,0.761c0.163,0.036,0.212,0.075,0.323,0.112l0.289,0.113l0.578,0.201l0.604,0.186
				l0.594,0.181l-0.023,0.125l-0.607-0.102l-0.303-0.051c-0.113-0.016-0.188-0.034-0.29-0.059l-0.606-0.139l-0.295-0.081
				l-0.265-0.075c-0.812-0.175-1.636-0.351-2.463-0.551l0.05,0.01c-0.708-0.118-1.38-0.342-1.934-0.493
				c-0.25-0.089-0.661-0.154-0.885-0.203c-0.345-0.054-0.721-0.128-1.033-0.167l-1.922-0.296l-1.985-0.267
				c-0.33-0.05-0.644-0.119-0.972-0.185c-0.344-0.1-0.758-0.194-1.043-0.313c-0.601-0.211-1.285-0.516-1.73-0.611
				c-0.084-0.034-0.311-0.021-0.46-0.042l-0.122-0.013l-0.031-0.003l-0.078-0.014l-0.026-0.008l-0.11-0.036
				c-0.146-0.049-0.287-0.104-0.428-0.229l-0.1-0.086l-0.021-0.024c-0.018-0.017-0.012-0.025-0.045-0.051l-0.098-0.076l-0.022-0.019
				l-0.013-0.009c-0.063-0.044,0.07,0.049,0.059,0.042l0.012,0.015c0.01,0.008,0.021,0.01,0.034,0.005l-0.088-0.008
				c-0.028-0.004-0.005,0.003-0.076-0.01c-0.067-0.014-0.14-0.034-0.21-0.061c-0.068-0.026-0.137-0.06-0.197-0.097l-0.088-0.057
				l-0.021-0.021l-0.264-0.266l-0.142-0.096c-0.103-0.069-0.153-0.128-0.286-0.217l-0.789-0.541
				c-0.535-0.342-1.031-0.68-1.623-1.001l-0.455-0.261c-0.188-0.099-0.33-0.229-0.469-0.333c0.002,0.007,0.033,0.001,0.042-0.026
				l-0.118-0.037l-0.059-0.019c-0.157-0.021,0.197,0.023,0.154,0.019l-0.021-0.001l-0.04-0.002
				c-0.216-0.008-0.404-0.038-0.631-0.085c-0.156-0.045-0.316-0.109-0.46-0.183c-0.062-0.033-0.075-0.05-0.114-0.076l-0.05-0.036
				l-0.024-0.018l-0.014-0.009c0.092,0.087-0.138-0.129-0.115-0.11l-0.063-0.08c-0.021-0.024,0.033,0.048,0.063,0.049L111,4.376
				c-0.309-0.125-0.586-0.123-1.119-0.473l-0.113-0.095l-0.029-0.032c-0.002-0.021-0.121-0.078-0.178-0.116l-0.211-0.125
				c-0.017-0.01-0.113-0.066-0.063-0.039l-0.11-0.059c-0.299-0.156-0.612-0.338-0.743-0.364c-0.045-0.002-0.031-0.03-0.125-0.029
				l-0.246-0.002l-0.123-0.001c-0.004,0-0.076,0-0.025,0l-0.057,0.004l-0.229,0.017c-0.304,0.025-0.598,0.03-0.931,0.098
				c-0.632,0.12-1.317,0.182-1.976,0.25c-0.578,0.048-1.229,0.24-1.867,0.374c-0.645,0.147-1.287,0.287-1.948,0.401
				c-0.291,0.05-0.785,0.136-1.071,0.118l-0.21-0.004c-0.028-0.013-0.121,0.019-0.181,0.025c-0.129,0.019-0.285,0.076-0.43,0.117
				c-0.299,0.101-0.599,0.219-0.904,0.342c-0.336,0.138-0.668,0.229-0.938,0.326c-1.251,0.49-2.631,0.694-3.925,0.757
				c-0.648,0.056-1.32,0.09-1.952,0.165c-0.61,0.093-1.228,0.333-1.829,0.575c-0.613,0.239-1.185,0.522-1.826,0.778
				c-0.646,0.232-1.258,0.414-1.888,0.624c-2.513,0.803-4.987,1.649-7.502,2.412c-0.306,0.094-0.651,0.183-0.923,0.281l-0.88,0.355
				c-0.593,0.22-1.183,0.451-1.757,0.762c-1.158,0.562-2.31,1.184-3.426,1.832l-0.037,0.021l-0.021,0.009
				c-0.347,0.163-0.688,0.313-1.044,0.481L69.1,14.737l-0.506,0.271l-0.539,0.339c-0.179,0.115-0.38,0.194-0.567,0.291
				c-0.185,0.1-0.392,0.172-0.597,0.244c-0.206,0.076-0.409,0.148-0.603,0.185c-0.203,0.044-0.377,0.099-0.607,0.124l-1.191,0.144
				l-0.597,0.111c-0.215,0.044-0.377,0.055-0.576,0.138c-0.392,0.137-0.785,0.207-1.177,0.314L62.1,16.777z"/>
		</g>
		<g>
			<path fill="#515961" d="M99.352,3.909c0.392-0.023,0.746-1.21,1.045-1.21c0.301,0,0.94-0.515,0.912-0.626
				c-0.033-0.113,0.41-0.452,0.59-0.383c0.183,0.068,0.207-0.009,0.207-0.009s0.959-0.161,0.951-0.439
				c-0.004-0.096-0.248-0.093-0.299-0.161c-0.076-0.1,0.02-0.358,0.27-0.427c0.244-0.068,0.445-0.09,0.65,0
				c0.201,0.089,0.235,0.182,0.122,0.338c-0.11,0.148-0.327,0.104-0.327,0.225c0,0.156,0.205,0.25,0.463,0.247
				c0.641-0.005,0.91,0.553,0.91,0.553v0.827L99.352,3.909z"/>
		</g>
		<g>
			<polygon fill="#515961" points="106.465,2.251 106.465,1.072 107.313,1.072 107.313,0 108.756,0 108.756,0.785 109.518,0.785 
				109.518,2.132 			"/>
		</g>
	</g>
</g>
</svg>
