<?xml version="1.0" encoding="utf-8"?>
<!-- Generator: Adobe Illustrator 16.0.0, SVG Export Plug-In . SVG Version: 6.00 Build 0)  -->
<!DOCTYPE svg PUBLIC "-//W3C//DTD SVG 1.1//EN" "http://www.w3.org/Graphics/SVG/1.1/DTD/svg11.dtd">
<svg version="1.1" id="Layer_1" xmlns="http://www.w3.org/2000/svg" xmlns:xlink="http://www.w3.org/1999/xlink" x="0px" y="0px"
	 width="64px" height="64px" viewBox="0 0 64 64" enable-background="new 0 0 64 64" xml:space="preserve">
<g>
	<path fill="#F1F3F5" d="M31.993,2C48.569,2.043,62.029,15.491,62,31.979C61.972,48.532,48.507,62,31.964,62
		c-7.986-0.005-15.507-3.134-21.179-8.809C5.108,47.512,1.988,39.981,2,31.987c0.012-8.02,3.129-15.542,8.776-21.184
		C16.419,5.167,23.954,2.041,31.993,2 M31.992,0C14.277,0.085,0.027,14.291,0,31.984C-0.027,49.632,14.36,63.988,31.963,64
		c0.007,0,0.014,0,0.021,0C49.611,64,63.97,49.644,64,31.982C64.031,14.42,49.642,0.043,31.992,0L31.992,0z"/>
</g>
<polyline fill="none" stroke="#F1F3F5" stroke-width="1.7316" stroke-miterlimit="10" points="12,42 32,22 52,42 "/>
</svg>
